<?xml version="1.0" encoding="us-ascii" standalone="no"?><svg xmlns="http://www.w3.org/2000/svg" xmlns:xlink="http://www.w3.org/1999/xlink" contentStyleType="text/css" height="369px" preserveAspectRatio="none" style="width:558px;height:369px;background:#FFFFFF;" version="1.1" viewBox="0 0 558 369" width="558px" zoomAndPan="magnify"><defs/><g><text fill="#000000" font-family="sans-serif" font-size="14" font-weight="bold" lengthAdjust="spacing" textLength="54" x="250.5" y="35.1074">1 &#35821;&#27861;&#26641;</text><rect fill="#F1F1F1" height="38.6211" rx="12.5" ry="12.5" style="stroke:#181818;stroke-width:1.5;" width="52" x="10" y="184.4502"/><text fill="#000000" font-family="sans-serif" font-size="14" lengthAdjust="spacing" textLength="28" x="20" y="209.5576">&#31243;&#24207;</text><rect fill="#F1F1F1" height="38.6211" rx="12.5" ry="12.5" style="stroke:#181818;stroke-width:1.5;" width="94" x="112" y="59.6211"/><text fill="#000000" font-family="sans-serif" font-size="14" lengthAdjust="spacing" textLength="70" x="122" y="84.7285">&#24635;&#20840;&#23616;&#22768;&#26126;</text><text fill="#000000" font-family="sans-serif" font-size="14" lengthAdjust="spacing" textLength="7" x="259" y="84.7285">&#949;</text><path d="M206,78.9316 L216,78.9316 C231,78.9316 231,78.9316 246,78.9316 L256,78.9316 " fill="none" style="stroke:#181818;stroke-width:1.0;"/><path d="M62,203.7607 L72,203.7607 C87,203.7607 87,78.9316 102,78.9316 L112,78.9316 " fill="none" style="stroke:#181818;stroke-width:1.0;"/><rect fill="#EE82EE" height="38.6211" rx="12.5" ry="12.5" style="stroke:#181818;stroke-width:1.5;" width="110" x="112" y="155.1396"/><text fill="#000000" font-family="sans-serif" font-size="14" lengthAdjust="spacing" textLength="86" x="122" y="180.2471">Main&#20989;&#25968;&#23450;&#20041;</text><text fill="#000000" font-family="sans-serif" font-size="14" lengthAdjust="spacing" textLength="30" x="275" y="105.3496">main</text><path d="M222,174.4502 L232,174.4502 C247,174.4502 247,99.5527 262,99.5527 L272,99.5527 " fill="none" style="stroke:#181818;stroke-width:1.0;"/><text fill="#000000" font-family="sans-serif" font-size="14" lengthAdjust="spacing" textLength="5" x="275" y="125.9707">(</text><path d="M222,174.4502 L232,174.4502 C247,174.4502 247,120.1738 262,120.1738 L272,120.1738 " fill="none" style="stroke:#181818;stroke-width:1.0;"/><text fill="#000000" font-family="sans-serif" font-size="14" lengthAdjust="spacing" textLength="5" x="275" y="146.5918">)</text><path d="M222,174.4502 L232,174.4502 C247,174.4502 247,140.7949 262,140.7949 L272,140.7949 " fill="none" style="stroke:#181818;stroke-width:1.0;"/><rect fill="#FFA07A" height="38.6211" rx="12.5" ry="12.5" style="stroke:#181818;stroke-width:1.5;" width="80" x="272" y="161.1055"/><text fill="#000000" font-family="sans-serif" font-size="14" lengthAdjust="spacing" textLength="56" x="282" y="186.2129">&#22797;&#21512;&#35821;&#21477;</text><text fill="#000000" font-family="sans-serif" font-size="14" lengthAdjust="spacing" textLength="5" x="405" y="117.2813">{</text><path d="M352,180.416 L362,180.416 C377,180.416 377,111.4844 392,111.4844 L402,111.4844 " fill="none" style="stroke:#181818;stroke-width:1.0;"/><rect fill="#B0C4DE" height="38.6211" rx="12.5" ry="12.5" style="stroke:#181818;stroke-width:1.5;" width="80" x="402" y="131.7949"/><text fill="#000000" font-family="sans-serif" font-size="14" lengthAdjust="spacing" textLength="56" x="412" y="156.9023">&#23616;&#37096;&#22768;&#26126;</text><text fill="#000000" font-family="sans-serif" font-size="14" lengthAdjust="spacing" textLength="7" x="535" y="156.9023">&#949;</text><path d="M482,151.1055 L492,151.1055 C507,151.1055 507,151.1055 522,151.1055 L532,151.1055 " fill="none" style="stroke:#181818;stroke-width:1.0;"/><path d="M352,180.416 L362,180.416 C377,180.416 377,151.1055 392,151.1055 L402,151.1055 " fill="none" style="stroke:#181818;stroke-width:1.0;"/><rect fill="#FFDEAD" height="38.6211" rx="12.5" ry="12.5" style="stroke:#181818;stroke-width:1.5;" width="66" x="402" y="190.416"/><text fill="#000000" font-family="sans-serif" font-size="14" lengthAdjust="spacing" textLength="42" x="412" y="215.5234">&#35821;&#21477;&#34920;</text><text fill="#000000" font-family="sans-serif" font-size="14" lengthAdjust="spacing" textLength="7" x="521" y="215.5234">&#949;</text><path d="M468,209.7266 L478,209.7266 C493,209.7266 493,209.7266 508,209.7266 L518,209.7266 " fill="none" style="stroke:#181818;stroke-width:1.0;"/><path d="M352,180.416 L362,180.416 C377,180.416 377,209.7266 392,209.7266 L402,209.7266 " fill="none" style="stroke:#181818;stroke-width:1.0;"/><text fill="#000000" font-family="sans-serif" font-size="14" lengthAdjust="spacing" textLength="5" x="405" y="255.1445">}</text><path d="M352,180.416 L362,180.416 C377,180.416 377,249.3477 392,249.3477 L402,249.3477 " fill="none" style="stroke:#181818;stroke-width:1.0;"/><path d="M222,174.4502 L232,174.4502 C247,174.4502 247,180.416 262,180.416 L272,180.416 " fill="none" style="stroke:#181818;stroke-width:1.0;"/><path d="M62,203.7607 L72,203.7607 C87,203.7607 87,174.4502 102,174.4502 L112,174.4502 " fill="none" style="stroke:#181818;stroke-width:1.0;"/><rect fill="#87CEFA" height="38.6211" rx="12.5" ry="12.5" style="stroke:#181818;stroke-width:1.5;" width="94" x="112" y="250.6582"/><text fill="#000000" font-family="sans-serif" font-size="14" lengthAdjust="spacing" textLength="70" x="122" y="275.7656">&#24635;&#20989;&#25968;&#23450;&#20041;</text><text fill="#000000" font-family="sans-serif" font-size="14" lengthAdjust="spacing" textLength="7" x="259" y="275.7656">&#949;</text><path d="M206,269.9688 L216,269.9688 C231,269.9688 231,269.9688 246,269.9688 L256,269.9688 " fill="none" style="stroke:#181818;stroke-width:1.0;"/><path d="M62,203.7607 L72,203.7607 C87,203.7607 87,269.9688 102,269.9688 L112,269.9688 " fill="none" style="stroke:#181818;stroke-width:1.0;"/><rect fill="#F1F1F1" height="38.6211" rx="12.5" ry="12.5" style="stroke:#181818;stroke-width:1.5;" width="80" x="112" y="309.2793"/><text fill="#000000" font-family="sans-serif" font-size="14" lengthAdjust="spacing" textLength="56" x="122" y="334.3867">&#25991;&#20214;&#32467;&#26463;</text><text fill="#000000" font-family="sans-serif" font-size="14" lengthAdjust="spacing" textLength="29" x="245" y="334.3867">EOF</text><path d="M192,328.5898 L202,328.5898 C217,328.5898 217,328.5898 232,328.5898 L242,328.5898 " fill="none" style="stroke:#181818;stroke-width:1.0;"/><path d="M62,203.7607 L72,203.7607 C87,203.7607 87,328.5898 102,328.5898 L112,328.5898 " fill="none" style="stroke:#181818;stroke-width:1.0;"/><!--SRC=[VPFTQXf15CVlvoaEz4Q5s7KZkYwBH7VN5gDDQ3vkmrItTgaxA-kia8eWBKL3QMqfQKiXz1kyIPjGMcXjyWXzYkngtgAZiqqKDCp5C6T-vp_dVsPcfKwnGosJb2rSGzIaLKE668o-7VhVz_ttBv1IfxjL8uq2H3DnnS4MD150TFIXFpezzVxqe9d5fViLntP9MRMhjWFNSeB4HckCUP-VUi-xJDBhVPb7vZ92CiF9pec_V-ITVFHw3xtkQwO_Xqy9kfuAbB- -FVkrDuUHaggUuvfNdAlf6OthV3hotpoRosGJQempZ_lUSNiXcKnAKYh5oUFs-QF-GZ8hg75DvsJtO7YuTzwPrq1Ho8ePRg68JRBGggvBeixaMaYv7jnL18Rz9zxl7g181FpsOAPq5elimDyVays9CcywrrUKoyFIQSvQB1AaXO8vF9bXvcOLPNh9andQdA2CdUuAOwUM0NjH5gEvoFW1ACgCu1Iq0wqBXxCUPkiFlFglEcU3dyF1I__WNM13Nyi1MZ7Oomu-05glOaAtYWLe64xTj0d4eg8WngFnq0QcaAav82H05ENbPLaKuERg9eotmoXqOxq0TTjrIWQKpJfrp3ikPVbXbCSD3BTTGasBVQsrca7oskh_0EYaOJesiGn2KNwxU0aauajPayA6uR1AOBk8DECkTgkKPPJiiaagCcnjvfOaLC2auk8Aqtvm3wdiOL1dLmRrrZy0]--></g></svg>