<?xml version="1.0" encoding="us-ascii" standalone="no"?><svg xmlns="http://www.w3.org/2000/svg" xmlns:xlink="http://www.w3.org/1999/xlink" contentStyleType="text/css" height="1412px" preserveAspectRatio="none" style="width:2355px;height:1412px;background:#FFFFFF;" version="1.1" viewBox="0 0 2355 1412" width="2355px" zoomAndPan="magnify"><defs/><g><text fill="#000000" font-family="sans-serif" font-size="14" font-weight="bold" lengthAdjust="spacing" textLength="93" x="1129.5" y="35.1074">Sample&#35821;&#27861;&#26641;</text><rect fill="#F1F1F1" height="38.6211" rx="12.5" ry="12.5" style="stroke:#181818;stroke-width:1.5;" width="52" x="10" y="705.7822"/><text fill="#000000" font-family="sans-serif" font-size="14" lengthAdjust="spacing" textLength="28" x="20" y="730.8896">&#31243;&#24207;</text><rect fill="#F1F1F1" height="38.6211" rx="12.5" ry="12.5" style="stroke:#181818;stroke-width:1.5;" width="94" x="112" y="149.1738"/><text fill="#000000" font-family="sans-serif" font-size="14" lengthAdjust="spacing" textLength="70" x="122" y="174.2813">&#24635;&#20840;&#23616;&#22768;&#26126;</text><rect fill="#F1F1F1" height="38.6211" rx="12.5" ry="12.5" style="stroke:#181818;stroke-width:1.5;" width="80" x="256" y="149.1738"/><text fill="#000000" font-family="sans-serif" font-size="14" lengthAdjust="spacing" textLength="56" x="266" y="174.2813">&#20989;&#25968;&#22768;&#26126;</text><rect fill="#F1F1F1" height="38.6211" rx="12.5" ry="12.5" style="stroke:#181818;stroke-width:1.5;" width="80" x="386" y="59.6211"/><text fill="#000000" font-family="sans-serif" font-size="14" lengthAdjust="spacing" textLength="56" x="396" y="84.7285">&#20989;&#25968;&#31867;&#22411;</text><text fill="#000000" font-family="sans-serif" font-size="14" lengthAdjust="spacing" textLength="26" x="519" y="84.7285">void</text><path d="M466,78.9316 L476,78.9316 C491,78.9316 491,78.9316 506,78.9316 L516,78.9316 " fill="none" style="stroke:#181818;stroke-width:1.0;"/><path d="M336,168.4844 L346,168.4844 C361,168.4844 361,78.9316 376,78.9316 L386,78.9316 " fill="none" style="stroke:#181818;stroke-width:1.0;"/><rect fill="#F1F1F1" height="38.6211" rx="12.5" ry="12.5" style="stroke:#181818;stroke-width:1.5;" width="66" x="386" y="118.2422"/><text fill="#000000" font-family="sans-serif" font-size="14" lengthAdjust="spacing" textLength="42" x="396" y="143.3496">&#26631;&#35782;&#31526;</text><text fill="#000000" font-family="sans-serif" font-size="14" lengthAdjust="spacing" textLength="4" x="505" y="143.3496">f</text><path d="M452,137.5527 L462,137.5527 C477,137.5527 477,137.5527 492,137.5527 L502,137.5527 " fill="none" style="stroke:#181818;stroke-width:1.0;"/><path d="M336,168.4844 L346,168.4844 C361,168.4844 361,137.5527 376,137.5527 L386,137.5527 " fill="none" style="stroke:#181818;stroke-width:1.0;"/><text fill="#000000" font-family="sans-serif" font-size="14" lengthAdjust="spacing" textLength="5" x="389" y="182.9707">(</text><path d="M336,168.4844 L346,168.4844 C361,168.4844 361,177.1738 376,177.1738 L386,177.1738 " fill="none" style="stroke:#181818;stroke-width:1.0;"/><rect fill="#F1F1F1" height="38.6211" rx="12.5" ry="12.5" style="stroke:#181818;stroke-width:1.5;" width="136" x="386" y="197.4844"/><text fill="#000000" font-family="sans-serif" font-size="14" lengthAdjust="spacing" textLength="112" x="396" y="222.5918">&#20989;&#25968;&#22768;&#26126;&#24418;&#21442;&#21015;&#34920;</text><text fill="#000000" font-family="sans-serif" font-size="14" lengthAdjust="spacing" textLength="7" x="575" y="222.5918">&#949;</text><path d="M522,216.7949 L532,216.7949 C547,216.7949 547,216.7949 562,216.7949 L572,216.7949 " fill="none" style="stroke:#181818;stroke-width:1.0;"/><path d="M336,168.4844 L346,168.4844 C361,168.4844 361,216.7949 376,216.7949 L386,216.7949 " fill="none" style="stroke:#181818;stroke-width:1.0;"/><text fill="#000000" font-family="sans-serif" font-size="14" lengthAdjust="spacing" textLength="5" x="389" y="262.2129">)</text><path d="M336,168.4844 L346,168.4844 C361,168.4844 361,256.416 376,256.416 L386,256.416 " fill="none" style="stroke:#181818;stroke-width:1.0;"/><text fill="#000000" font-family="sans-serif" font-size="14" lengthAdjust="spacing" textLength="4" x="389" y="282.834">;</text><path d="M336,168.4844 L346,168.4844 C361,168.4844 361,277.0371 376,277.0371 L386,277.0371 " fill="none" style="stroke:#181818;stroke-width:1.0;"/><path d="M206,168.4844 L216,168.4844 C231,168.4844 231,168.4844 246,168.4844 L256,168.4844 " fill="none" style="stroke:#181818;stroke-width:1.0;"/><path d="M62,725.0928 L72,725.0928 C87,725.0928 87,168.4844 102,168.4844 L112,168.4844 " fill="none" style="stroke:#181818;stroke-width:1.0;"/><rect fill="#EE82EE" height="38.6211" rx="12.5" ry="12.5" style="stroke:#181818;stroke-width:1.5;" width="110" x="112" y="627.3506"/><text fill="#000000" font-family="sans-serif" font-size="14" lengthAdjust="spacing" textLength="86" x="122" y="652.458">Main&#20989;&#25968;&#23450;&#20041;</text><text fill="#000000" font-family="sans-serif" font-size="14" lengthAdjust="spacing" textLength="30" x="275" y="571.5947">main</text><path d="M222,646.6611 L232,646.6611 C247,646.6611 247,565.7979 262,565.7979 L272,565.7979 " fill="none" style="stroke:#181818;stroke-width:1.0;"/><text fill="#000000" font-family="sans-serif" font-size="14" lengthAdjust="spacing" textLength="5" x="275" y="592.2158">(</text><path d="M222,646.6611 L232,646.6611 C247,646.6611 247,586.4189 262,586.4189 L272,586.4189 " fill="none" style="stroke:#181818;stroke-width:1.0;"/><text fill="#000000" font-family="sans-serif" font-size="14" lengthAdjust="spacing" textLength="5" x="275" y="612.8369">)</text><path d="M222,646.6611 L232,646.6611 C247,646.6611 247,607.04 262,607.04 L272,607.04 " fill="none" style="stroke:#181818;stroke-width:1.0;"/><rect fill="#FFA07A" height="38.6211" rx="12.5" ry="12.5" style="stroke:#181818;stroke-width:1.5;" width="80" x="272" y="627.3506"/><text fill="#000000" font-family="sans-serif" font-size="14" lengthAdjust="spacing" textLength="56" x="282" y="652.458">&#22797;&#21512;&#35821;&#21477;</text><text fill="#000000" font-family="sans-serif" font-size="14" lengthAdjust="spacing" textLength="5" x="405" y="322.4551">{</text><path d="M352,646.6611 L362,646.6611 C377,646.6611 377,316.6582 392,316.6582 L402,316.6582 " fill="none" style="stroke:#181818;stroke-width:1.0;"/><rect fill="#B0C4DE" height="38.6211" rx="12.5" ry="12.5" style="stroke:#181818;stroke-width:1.5;" width="80" x="402" y="336.9688"/><text fill="#000000" font-family="sans-serif" font-size="14" lengthAdjust="spacing" textLength="56" x="412" y="362.0762">&#23616;&#37096;&#22768;&#26126;</text><rect fill="#F1F1F1" height="38.6211" rx="12.5" ry="12.5" style="stroke:#181818;stroke-width:1.5;" width="80" x="532" y="336.9688"/><text fill="#000000" font-family="sans-serif" font-size="14" lengthAdjust="spacing" textLength="56" x="542" y="362.0762">&#21464;&#37327;&#22768;&#26126;</text><rect fill="#F1F1F1" height="38.6211" rx="12.5" ry="12.5" style="stroke:#181818;stroke-width:1.5;" width="80" x="662" y="297.3477"/><text fill="#000000" font-family="sans-serif" font-size="14" lengthAdjust="spacing" textLength="56" x="672" y="322.4551">&#25968;&#25454;&#31867;&#22411;</text><text fill="#000000" font-family="sans-serif" font-size="14" lengthAdjust="spacing" textLength="15" x="795" y="322.4551">int</text><path d="M742,316.6582 L752,316.6582 C767,316.6582 767,316.6582 782,316.6582 L792,316.6582 " fill="none" style="stroke:#181818;stroke-width:1.0;"/><path d="M612,356.2793 L622,356.2793 C637,356.2793 637,316.6582 652,316.6582 L662,316.6582 " fill="none" style="stroke:#181818;stroke-width:1.0;"/><rect fill="#F1F1F1" height="38.6211" rx="12.5" ry="12.5" style="stroke:#181818;stroke-width:1.5;" width="66" x="662" y="355.9688"/><text fill="#000000" font-family="sans-serif" font-size="14" lengthAdjust="spacing" textLength="42" x="672" y="381.0762">&#21464;&#37327;&#34920;</text><rect fill="#F1F1F1" height="38.6211" rx="12.5" ry="12.5" style="stroke:#181818;stroke-width:1.5;" width="66" x="778" y="355.9688"/><text fill="#000000" font-family="sans-serif" font-size="14" lengthAdjust="spacing" textLength="42" x="788" y="381.0762">&#21464;&#37327;&#24335;</text><rect fill="#F1F1F1" height="38.6211" rx="12.5" ry="12.5" style="stroke:#181818;stroke-width:1.5;" width="66" x="894" y="355.9688"/><text fill="#000000" font-family="sans-serif" font-size="14" lengthAdjust="spacing" textLength="42" x="904" y="381.0762">&#26631;&#35782;&#31526;</text><text fill="#000000" font-family="sans-serif" font-size="14" lengthAdjust="spacing" textLength="8" x="1013" y="381.0762">a</text><path d="M960,375.2793 L970,375.2793 C985,375.2793 985,375.2793 1000,375.2793 L1010,375.2793 " fill="none" style="stroke:#181818;stroke-width:1.0;"/><path d="M844,375.2793 L854,375.2793 C869,375.2793 869,375.2793 884,375.2793 L894,375.2793 " fill="none" style="stroke:#181818;stroke-width:1.0;"/><path d="M728,375.2793 L738,375.2793 C753,375.2793 753,375.2793 768,375.2793 L778,375.2793 " fill="none" style="stroke:#181818;stroke-width:1.0;"/><path d="M612,356.2793 L622,356.2793 C637,356.2793 637,375.2793 652,375.2793 L662,375.2793 " fill="none" style="stroke:#181818;stroke-width:1.0;"/><text fill="#000000" font-family="sans-serif" font-size="14" lengthAdjust="spacing" textLength="4" x="665" y="420.6973">;</text><path d="M612,356.2793 L622,356.2793 C637,356.2793 637,414.9004 652,414.9004 L662,414.9004 " fill="none" style="stroke:#181818;stroke-width:1.0;"/><path d="M482,356.2793 L492,356.2793 C507,356.2793 507,356.2793 522,356.2793 L532,356.2793 " fill="none" style="stroke:#181818;stroke-width:1.0;"/><path d="M352,646.6611 L362,646.6611 C377,646.6611 377,356.2793 392,356.2793 L402,356.2793 " fill="none" style="stroke:#181818;stroke-width:1.0;"/><rect fill="#FFDEAD" height="38.6211" rx="12.5" ry="12.5" style="stroke:#181818;stroke-width:1.5;" width="66" x="402" y="696.2822"/><text fill="#000000" font-family="sans-serif" font-size="14" lengthAdjust="spacing" textLength="42" x="412" y="721.3896">&#35821;&#21477;&#34920;</text><rect fill="#FFDEAD" height="38.6211" rx="12.5" ry="12.5" style="stroke:#181818;stroke-width:1.5;" width="52" x="518" y="489.4873"/><text fill="#000000" font-family="sans-serif" font-size="14" lengthAdjust="spacing" textLength="28" x="528" y="514.5947">&#35821;&#21477;</text><rect fill="#FFDEAD" height="38.6211" rx="12.5" ry="12.5" style="stroke:#181818;stroke-width:1.5;" width="94" x="620" y="489.4873"/><text fill="#000000" font-family="sans-serif" font-size="14" lengthAdjust="spacing" textLength="70" x="630" y="514.5947">&#34920;&#36798;&#24335;&#35821;&#21477;</text><rect fill="#F08080" height="38.6211" rx="12.5" ry="12.5" style="stroke:#181818;stroke-width:1.5;" width="66" x="764" y="489.4873"/><text fill="#000000" font-family="sans-serif" font-size="14" lengthAdjust="spacing" textLength="42" x="774" y="514.5947">&#34920;&#36798;&#24335;</text><rect fill="#F1F1F1" height="38.6211" rx="12.5" ry="12.5" style="stroke:#181818;stroke-width:1.5;" width="66" x="880" y="435.2109"/><text fill="#000000" font-family="sans-serif" font-size="14" lengthAdjust="spacing" textLength="42" x="890" y="460.3184">&#26631;&#35782;&#31526;</text><text fill="#000000" font-family="sans-serif" font-size="14" lengthAdjust="spacing" textLength="8" x="999" y="460.3184">a</text><path d="M946,454.5215 L956,454.5215 C971,454.5215 971,454.5215 986,454.5215 L996,454.5215 " fill="none" style="stroke:#181818;stroke-width:1.0;"/><path d="M830,508.7979 L840,508.7979 C855,508.7979 855,454.5215 870,454.5215 L880,454.5215 " fill="none" style="stroke:#181818;stroke-width:1.0;"/><text fill="#000000" font-family="sans-serif" font-size="14" lengthAdjust="spacing" textLength="18" x="883" y="499.9395">"="</text><path d="M830,508.7979 L840,508.7979 C855,508.7979 855,494.1426 870,494.1426 L880,494.1426 " fill="none" style="stroke:#181818;stroke-width:1.0;"/><rect fill="#F08080" height="38.6211" rx="12.5" ry="12.5" style="stroke:#181818;stroke-width:1.5;" width="66" x="880" y="514.4531"/><text fill="#000000" font-family="sans-serif" font-size="14" lengthAdjust="spacing" textLength="42" x="890" y="539.5605">&#34920;&#36798;&#24335;</text><rect fill="#F08080" height="38.6211" rx="12.5" ry="12.5" style="stroke:#181818;stroke-width:1.5;" width="94" x="996" y="514.4531"/><text fill="#000000" font-family="sans-serif" font-size="14" lengthAdjust="spacing" textLength="70" x="1006" y="539.5605">&#31616;&#21333;&#34920;&#36798;&#24335;</text><rect fill="#90EE90" height="38.6211" rx="12.5" ry="12.5" style="stroke:#181818;stroke-width:1.5;" width="66" x="1140" y="514.4531"/><text fill="#000000" font-family="sans-serif" font-size="14" lengthAdjust="spacing" textLength="42" x="1150" y="539.5605">&#24067;&#23572;&#39033;</text><rect fill="#90EE90" height="38.6211" rx="12.5" ry="12.5" style="stroke:#181818;stroke-width:1.5;" width="80" x="1256" y="514.4531"/><text fill="#000000" font-family="sans-serif" font-size="14" lengthAdjust="spacing" textLength="56" x="1266" y="539.5605">&#24067;&#23572;&#22240;&#23376;</text><rect fill="#F08080" height="38.6211" rx="12.5" ry="12.5" style="stroke:#181818;stroke-width:1.5;" width="94" x="1386" y="514.4531"/><text fill="#000000" font-family="sans-serif" font-size="14" lengthAdjust="spacing" textLength="70" x="1396" y="539.5605">&#20851;&#31995;&#34920;&#36798;&#24335;</text><rect fill="#F08080" height="38.6211" rx="12.5" ry="12.5" style="stroke:#181818;stroke-width:1.5;" width="94" x="1530" y="514.4531"/><text fill="#000000" font-family="sans-serif" font-size="14" lengthAdjust="spacing" textLength="70" x="1540" y="539.5605">&#31639;&#25968;&#34920;&#36798;&#24335;</text><rect fill="#F1F1F1" height="38.6211" rx="12.5" ry="12.5" style="stroke:#181818;stroke-width:1.5;" width="38" x="1674" y="514.4531"/><text fill="#000000" font-family="sans-serif" font-size="14" lengthAdjust="spacing" textLength="14" x="1684" y="539.5605">&#39033;</text><rect fill="#F1F1F1" height="38.6211" rx="12.5" ry="12.5" style="stroke:#181818;stroke-width:1.5;" width="52" x="1762" y="514.4531"/><text fill="#000000" font-family="sans-serif" font-size="14" lengthAdjust="spacing" textLength="28" x="1772" y="539.5605">&#22240;&#23376;</text><rect fill="#F1F1F1" height="38.6211" rx="12.5" ry="12.5" style="stroke:#181818;stroke-width:1.5;" width="94" x="1864" y="485.1426"/><text fill="#000000" font-family="sans-serif" font-size="14" lengthAdjust="spacing" textLength="70" x="1874" y="510.25">&#21462;&#21453;&#36816;&#31639;&#31526;</text><text fill="#000000" font-family="sans-serif" font-size="14" lengthAdjust="spacing" textLength="5" x="2011" y="510.25">-</text><path d="M1958,504.4531 L1968,504.4531 C1983,504.4531 1983,504.4531 1998,504.4531 L2008,504.4531 " fill="none" style="stroke:#181818;stroke-width:1.0;"/><path d="M1814,533.7637 L1824,533.7637 C1839,533.7637 1839,504.4531 1854,504.4531 L1864,504.4531 " fill="none" style="stroke:#181818;stroke-width:1.0;"/><rect fill="#F1F1F1" height="38.6211" rx="12.5" ry="12.5" style="stroke:#181818;stroke-width:1.5;" width="52" x="1864" y="543.7637"/><text fill="#000000" font-family="sans-serif" font-size="14" lengthAdjust="spacing" textLength="28" x="1874" y="568.8711">&#22240;&#23376;</text><rect fill="#20B2AA" height="38.6211" rx="12.5" ry="12.5" style="stroke:#181818;stroke-width:1.5;" width="66" x="1966" y="543.7637"/><text fill="#000000" font-family="sans-serif" font-size="14" lengthAdjust="spacing" textLength="42" x="1976" y="568.8711">&#21021;&#31561;&#37327;</text><rect fill="#F1F1F1" height="38.6211" rx="12.5" ry="12.5" style="stroke:#181818;stroke-width:1.5;" width="52" x="2082" y="543.7637"/><text fill="#000000" font-family="sans-serif" font-size="14" lengthAdjust="spacing" textLength="28" x="2092" y="568.8711">&#24120;&#37327;</text><text fill="#000000" font-family="sans-serif" font-size="14" lengthAdjust="spacing" textLength="8" x="2187" y="568.8711">6</text><path d="M2134,563.0742 L2144,563.0742 C2159,563.0742 2159,563.0742 2174,563.0742 L2184,563.0742 " fill="none" style="stroke:#181818;stroke-width:1.0;"/><path d="M2032,563.0742 L2042,563.0742 C2057,563.0742 2057,563.0742 2072,563.0742 L2082,563.0742 " fill="none" style="stroke:#181818;stroke-width:1.0;"/><path d="M1916,563.0742 L1926,563.0742 C1941,563.0742 1941,563.0742 1956,563.0742 L1966,563.0742 " fill="none" style="stroke:#181818;stroke-width:1.0;"/><path d="M1814,533.7637 L1824,533.7637 C1839,533.7637 1839,563.0742 1854,563.0742 L1864,563.0742 " fill="none" style="stroke:#181818;stroke-width:1.0;"/><path d="M1712,533.7637 L1722,533.7637 C1737,533.7637 1737,533.7637 1752,533.7637 L1762,533.7637 " fill="none" style="stroke:#181818;stroke-width:1.0;"/><path d="M1624,533.7637 L1634,533.7637 C1649,533.7637 1649,533.7637 1664,533.7637 L1674,533.7637 " fill="none" style="stroke:#181818;stroke-width:1.0;"/><path d="M1480,533.7637 L1490,533.7637 C1505,533.7637 1505,533.7637 1520,533.7637 L1530,533.7637 " fill="none" style="stroke:#181818;stroke-width:1.0;"/><path d="M1336,533.7637 L1346,533.7637 C1361,533.7637 1361,533.7637 1376,533.7637 L1386,533.7637 " fill="none" style="stroke:#181818;stroke-width:1.0;"/><path d="M1206,533.7637 L1216,533.7637 C1231,533.7637 1231,533.7637 1246,533.7637 L1256,533.7637 " fill="none" style="stroke:#181818;stroke-width:1.0;"/><path d="M1090,533.7637 L1100,533.7637 C1115,533.7637 1115,533.7637 1130,533.7637 L1140,533.7637 " fill="none" style="stroke:#181818;stroke-width:1.0;"/><path d="M946,533.7637 L956,533.7637 C971,533.7637 971,533.7637 986,533.7637 L996,533.7637 " fill="none" style="stroke:#181818;stroke-width:1.0;"/><path d="M830,508.7979 L840,508.7979 C855,508.7979 855,533.7637 870,533.7637 L880,533.7637 " fill="none" style="stroke:#181818;stroke-width:1.0;"/><path d="M714,508.7979 L724,508.7979 C739,508.7979 739,508.7979 754,508.7979 L764,508.7979 " fill="none" style="stroke:#181818;stroke-width:1.0;"/><text fill="#000000" font-family="sans-serif" font-size="14" lengthAdjust="spacing" textLength="4" x="767" y="554.2158">;</text><path d="M714,508.7979 L724,508.7979 C739,508.7979 739,548.4189 754,548.4189 L764,548.4189 " fill="none" style="stroke:#181818;stroke-width:1.0;"/><path d="M570,508.7979 L580,508.7979 C595,508.7979 595,508.7979 610,508.7979 L620,508.7979 " fill="none" style="stroke:#181818;stroke-width:1.0;"/><path d="M468,715.5928 L478,715.5928 C493,715.5928 493,508.7979 508,508.7979 L518,508.7979 " fill="none" style="stroke:#181818;stroke-width:1.0;"/><rect fill="#FFDEAD" height="38.6211" rx="12.5" ry="12.5" style="stroke:#181818;stroke-width:1.5;" width="52" x="518" y="700.627"/><text fill="#000000" font-family="sans-serif" font-size="14" lengthAdjust="spacing" textLength="28" x="528" y="725.7344">&#35821;&#21477;</text><rect fill="#FFDEAD" height="38.6211" rx="12.5" ry="12.5" style="stroke:#181818;stroke-width:1.5;" width="94" x="620" y="700.627"/><text fill="#000000" font-family="sans-serif" font-size="14" lengthAdjust="spacing" textLength="70" x="630" y="725.7344">&#34920;&#36798;&#24335;&#35821;&#21477;</text><rect fill="#F08080" height="38.6211" rx="12.5" ry="12.5" style="stroke:#181818;stroke-width:1.5;" width="66" x="764" y="700.627"/><text fill="#000000" font-family="sans-serif" font-size="14" lengthAdjust="spacing" textLength="42" x="774" y="725.7344">&#34920;&#36798;&#24335;</text><rect fill="#F1F1F1" height="38.6211" rx="12.5" ry="12.5" style="stroke:#181818;stroke-width:1.5;" width="66" x="880" y="602.3848"/><text fill="#000000" font-family="sans-serif" font-size="14" lengthAdjust="spacing" textLength="42" x="890" y="627.4922">&#26631;&#35782;&#31526;</text><text fill="#000000" font-family="sans-serif" font-size="14" lengthAdjust="spacing" textLength="8" x="999" y="627.4922">b</text><path d="M946,621.6953 L956,621.6953 C971,621.6953 971,621.6953 986,621.6953 L996,621.6953 " fill="none" style="stroke:#181818;stroke-width:1.0;"/><path d="M830,719.9375 L840,719.9375 C855,719.9375 855,621.6953 870,621.6953 L880,621.6953 " fill="none" style="stroke:#181818;stroke-width:1.0;"/><text fill="#000000" font-family="sans-serif" font-size="14" lengthAdjust="spacing" textLength="18" x="883" y="667.1133">"="</text><path d="M830,719.9375 L840,719.9375 C855,719.9375 855,661.3164 870,661.3164 L880,661.3164 " fill="none" style="stroke:#181818;stroke-width:1.0;"/><rect fill="#F08080" height="38.6211" rx="12.5" ry="12.5" style="stroke:#181818;stroke-width:1.5;" width="66" x="880" y="720.4375"/><text fill="#000000" font-family="sans-serif" font-size="14" lengthAdjust="spacing" textLength="42" x="890" y="745.5449">&#34920;&#36798;&#24335;</text><rect fill="#F08080" height="38.6211" rx="12.5" ry="12.5" style="stroke:#181818;stroke-width:1.5;" width="94" x="996" y="720.4375"/><text fill="#000000" font-family="sans-serif" font-size="14" lengthAdjust="spacing" textLength="70" x="1006" y="745.5449">&#31616;&#21333;&#34920;&#36798;&#24335;</text><rect fill="#90EE90" height="38.6211" rx="12.5" ry="12.5" style="stroke:#181818;stroke-width:1.5;" width="66" x="1140" y="720.4375"/><text fill="#000000" font-family="sans-serif" font-size="14" lengthAdjust="spacing" textLength="42" x="1150" y="745.5449">&#24067;&#23572;&#39033;</text><rect fill="#90EE90" height="38.6211" rx="12.5" ry="12.5" style="stroke:#181818;stroke-width:1.5;" width="80" x="1256" y="720.4375"/><text fill="#000000" font-family="sans-serif" font-size="14" lengthAdjust="spacing" textLength="56" x="1266" y="745.5449">&#24067;&#23572;&#22240;&#23376;</text><rect fill="#F08080" height="38.6211" rx="12.5" ry="12.5" style="stroke:#181818;stroke-width:1.5;" width="94" x="1386" y="720.4375"/><text fill="#000000" font-family="sans-serif" font-size="14" lengthAdjust="spacing" textLength="70" x="1396" y="745.5449">&#20851;&#31995;&#34920;&#36798;&#24335;</text><rect fill="#F08080" height="38.6211" rx="12.5" ry="12.5" style="stroke:#181818;stroke-width:1.5;" width="94" x="1530" y="720.4375"/><text fill="#000000" font-family="sans-serif" font-size="14" lengthAdjust="spacing" textLength="70" x="1540" y="745.5449">&#31639;&#25968;&#34920;&#36798;&#24335;</text><rect fill="#F1F1F1" height="38.6211" rx="12.5" ry="12.5" style="stroke:#181818;stroke-width:1.5;" width="38" x="1674" y="642.0059"/><text fill="#000000" font-family="sans-serif" font-size="14" lengthAdjust="spacing" textLength="14" x="1684" y="667.1133">&#39033;</text><rect fill="#F1F1F1" height="38.6211" rx="12.5" ry="12.5" style="stroke:#181818;stroke-width:1.5;" width="52" x="1762" y="642.0059"/><text fill="#000000" font-family="sans-serif" font-size="14" lengthAdjust="spacing" textLength="28" x="1772" y="667.1133">&#22240;&#23376;</text><rect fill="#20B2AA" height="38.6211" rx="12.5" ry="12.5" style="stroke:#181818;stroke-width:1.5;" width="66" x="1864" y="642.0059"/><text fill="#000000" font-family="sans-serif" font-size="14" lengthAdjust="spacing" textLength="42" x="1874" y="667.1133">&#21021;&#31561;&#37327;</text><rect fill="#F1F1F1" height="38.6211" rx="12.5" ry="12.5" style="stroke:#181818;stroke-width:1.5;" width="66" x="1980" y="642.0059"/><text fill="#000000" font-family="sans-serif" font-size="14" lengthAdjust="spacing" textLength="42" x="1990" y="667.1133">&#21464;&#37327;&#21517;</text><text fill="#000000" font-family="sans-serif" font-size="14" lengthAdjust="spacing" textLength="8" x="2099" y="667.1133">a</text><path d="M2046,661.3164 L2056,661.3164 C2071,661.3164 2071,661.3164 2086,661.3164 L2096,661.3164 " fill="none" style="stroke:#181818;stroke-width:1.0;"/><path d="M1930,661.3164 L1940,661.3164 C1955,661.3164 1955,661.3164 1970,661.3164 L1980,661.3164 " fill="none" style="stroke:#181818;stroke-width:1.0;"/><path d="M1814,661.3164 L1824,661.3164 C1839,661.3164 1839,661.3164 1854,661.3164 L1864,661.3164 " fill="none" style="stroke:#181818;stroke-width:1.0;"/><path d="M1712,661.3164 L1722,661.3164 C1737,661.3164 1737,661.3164 1752,661.3164 L1762,661.3164 " fill="none" style="stroke:#181818;stroke-width:1.0;"/><path d="M1624,739.748 L1634,739.748 C1649,739.748 1649,661.3164 1664,661.3164 L1674,661.3164 " fill="none" style="stroke:#181818;stroke-width:1.0;"/><rect fill="#F1F1F1" height="38.6211" rx="12.5" ry="12.5" style="stroke:#181818;stroke-width:1.5;" width="94" x="1674" y="700.627"/><text fill="#000000" font-family="sans-serif" font-size="14" lengthAdjust="spacing" textLength="70" x="1684" y="725.7344">&#21152;&#20943;&#36816;&#31639;&#31526;</text><text fill="#000000" font-family="sans-serif" font-size="14" lengthAdjust="spacing" textLength="8" x="1821" y="725.7344">+</text><path d="M1768,719.9375 L1778,719.9375 C1793,719.9375 1793,719.9375 1808,719.9375 L1818,719.9375 " fill="none" style="stroke:#181818;stroke-width:1.0;"/><path d="M1624,739.748 L1634,739.748 C1649,739.748 1649,719.9375 1664,719.9375 L1674,719.9375 " fill="none" style="stroke:#181818;stroke-width:1.0;"/><rect fill="#F08080" height="38.6211" rx="12.5" ry="12.5" style="stroke:#181818;stroke-width:1.5;" width="94" x="1674" y="769.5586"/><text fill="#000000" font-family="sans-serif" font-size="14" lengthAdjust="spacing" textLength="70" x="1684" y="794.666">&#31639;&#25968;&#34920;&#36798;&#24335;</text><rect fill="#F1F1F1" height="38.6211" rx="12.5" ry="12.5" style="stroke:#181818;stroke-width:1.5;" width="38" x="1818" y="769.5586"/><text fill="#000000" font-family="sans-serif" font-size="14" lengthAdjust="spacing" textLength="14" x="1828" y="794.666">&#39033;</text><rect fill="#F1F1F1" height="38.6211" rx="12.5" ry="12.5" style="stroke:#181818;stroke-width:1.5;" width="52" x="1906" y="769.5586"/><text fill="#000000" font-family="sans-serif" font-size="14" lengthAdjust="spacing" textLength="28" x="1916" y="794.666">&#22240;&#23376;</text><rect fill="#F1F1F1" height="38.6211" rx="12.5" ry="12.5" style="stroke:#181818;stroke-width:1.5;" width="94" x="2008" y="740.248"/><text fill="#000000" font-family="sans-serif" font-size="14" lengthAdjust="spacing" textLength="70" x="2018" y="765.3555">&#21462;&#21453;&#36816;&#31639;&#31526;</text><text fill="#000000" font-family="sans-serif" font-size="14" lengthAdjust="spacing" textLength="5" x="2155" y="765.3555">-</text><path d="M2102,759.5586 L2112,759.5586 C2127,759.5586 2127,759.5586 2142,759.5586 L2152,759.5586 " fill="none" style="stroke:#181818;stroke-width:1.0;"/><path d="M1958,788.8691 L1968,788.8691 C1983,788.8691 1983,759.5586 1998,759.5586 L2008,759.5586 " fill="none" style="stroke:#181818;stroke-width:1.0;"/><rect fill="#F1F1F1" height="38.6211" rx="12.5" ry="12.5" style="stroke:#181818;stroke-width:1.5;" width="52" x="2008" y="798.8691"/><text fill="#000000" font-family="sans-serif" font-size="14" lengthAdjust="spacing" textLength="28" x="2018" y="823.9766">&#22240;&#23376;</text><rect fill="#20B2AA" height="38.6211" rx="12.5" ry="12.5" style="stroke:#181818;stroke-width:1.5;" width="66" x="2110" y="798.8691"/><text fill="#000000" font-family="sans-serif" font-size="14" lengthAdjust="spacing" textLength="42" x="2120" y="823.9766">&#21021;&#31561;&#37327;</text><rect fill="#F1F1F1" height="38.6211" rx="12.5" ry="12.5" style="stroke:#181818;stroke-width:1.5;" width="52" x="2226" y="798.8691"/><text fill="#000000" font-family="sans-serif" font-size="14" lengthAdjust="spacing" textLength="28" x="2236" y="823.9766">&#24120;&#37327;</text><text fill="#000000" font-family="sans-serif" font-size="14" lengthAdjust="spacing" textLength="8" x="2331" y="823.9766">6</text><path d="M2278,818.1797 L2288,818.1797 C2303,818.1797 2303,818.1797 2318,818.1797 L2328,818.1797 " fill="none" style="stroke:#181818;stroke-width:1.0;"/><path d="M2176,818.1797 L2186,818.1797 C2201,818.1797 2201,818.1797 2216,818.1797 L2226,818.1797 " fill="none" style="stroke:#181818;stroke-width:1.0;"/><path d="M2060,818.1797 L2070,818.1797 C2085,818.1797 2085,818.1797 2100,818.1797 L2110,818.1797 " fill="none" style="stroke:#181818;stroke-width:1.0;"/><path d="M1958,788.8691 L1968,788.8691 C1983,788.8691 1983,818.1797 1998,818.1797 L2008,818.1797 " fill="none" style="stroke:#181818;stroke-width:1.0;"/><path d="M1856,788.8691 L1866,788.8691 C1881,788.8691 1881,788.8691 1896,788.8691 L1906,788.8691 " fill="none" style="stroke:#181818;stroke-width:1.0;"/><path d="M1768,788.8691 L1778,788.8691 C1793,788.8691 1793,788.8691 1808,788.8691 L1818,788.8691 " fill="none" style="stroke:#181818;stroke-width:1.0;"/><path d="M1624,739.748 L1634,739.748 C1649,739.748 1649,788.8691 1664,788.8691 L1674,788.8691 " fill="none" style="stroke:#181818;stroke-width:1.0;"/><path d="M1480,739.748 L1490,739.748 C1505,739.748 1505,739.748 1520,739.748 L1530,739.748 " fill="none" style="stroke:#181818;stroke-width:1.0;"/><path d="M1336,739.748 L1346,739.748 C1361,739.748 1361,739.748 1376,739.748 L1386,739.748 " fill="none" style="stroke:#181818;stroke-width:1.0;"/><path d="M1206,739.748 L1216,739.748 C1231,739.748 1231,739.748 1246,739.748 L1256,739.748 " fill="none" style="stroke:#181818;stroke-width:1.0;"/><path d="M1090,739.748 L1100,739.748 C1115,739.748 1115,739.748 1130,739.748 L1140,739.748 " fill="none" style="stroke:#181818;stroke-width:1.0;"/><path d="M946,739.748 L956,739.748 C971,739.748 971,739.748 986,739.748 L996,739.748 " fill="none" style="stroke:#181818;stroke-width:1.0;"/><path d="M830,719.9375 L840,719.9375 C855,719.9375 855,739.748 870,739.748 L880,739.748 " fill="none" style="stroke:#181818;stroke-width:1.0;"/><path d="M714,719.9375 L724,719.9375 C739,719.9375 739,719.9375 754,719.9375 L764,719.9375 " fill="none" style="stroke:#181818;stroke-width:1.0;"/><text fill="#000000" font-family="sans-serif" font-size="14" lengthAdjust="spacing" textLength="4" x="767" y="765.3555">;</text><path d="M714,719.9375 L724,719.9375 C739,719.9375 739,759.5586 754,759.5586 L764,759.5586 " fill="none" style="stroke:#181818;stroke-width:1.0;"/><path d="M570,719.9375 L580,719.9375 C595,719.9375 595,719.9375 610,719.9375 L620,719.9375 " fill="none" style="stroke:#181818;stroke-width:1.0;"/><path d="M468,715.5928 L478,715.5928 C493,715.5928 493,719.9375 508,719.9375 L518,719.9375 " fill="none" style="stroke:#181818;stroke-width:1.0;"/><rect fill="#FFDEAD" height="38.6211" rx="12.5" ry="12.5" style="stroke:#181818;stroke-width:1.5;" width="52" x="518" y="907.4219"/><text fill="#000000" font-family="sans-serif" font-size="14" lengthAdjust="spacing" textLength="28" x="528" y="932.5293">&#35821;&#21477;</text><rect fill="#FFDEAD" height="38.6211" rx="12.5" ry="12.5" style="stroke:#181818;stroke-width:1.5;" width="94" x="620" y="907.4219"/><text fill="#000000" font-family="sans-serif" font-size="14" lengthAdjust="spacing" textLength="70" x="630" y="932.5293">&#34920;&#36798;&#24335;&#35821;&#21477;</text><rect fill="#F08080" height="38.6211" rx="12.5" ry="12.5" style="stroke:#181818;stroke-width:1.5;" width="66" x="764" y="907.4219"/><text fill="#000000" font-family="sans-serif" font-size="14" lengthAdjust="spacing" textLength="42" x="774" y="932.5293">&#34920;&#36798;&#24335;</text><rect fill="#F08080" height="38.6211" rx="12.5" ry="12.5" style="stroke:#181818;stroke-width:1.5;" width="94" x="880" y="907.4219"/><text fill="#000000" font-family="sans-serif" font-size="14" lengthAdjust="spacing" textLength="70" x="890" y="932.5293">&#31616;&#21333;&#34920;&#36798;&#24335;</text><rect fill="#90EE90" height="38.6211" rx="12.5" ry="12.5" style="stroke:#181818;stroke-width:1.5;" width="66" x="1024" y="907.4219"/><text fill="#000000" font-family="sans-serif" font-size="14" lengthAdjust="spacing" textLength="42" x="1034" y="932.5293">&#24067;&#23572;&#39033;</text><rect fill="#90EE90" height="38.6211" rx="12.5" ry="12.5" style="stroke:#181818;stroke-width:1.5;" width="80" x="1140" y="907.4219"/><text fill="#000000" font-family="sans-serif" font-size="14" lengthAdjust="spacing" textLength="56" x="1150" y="932.5293">&#24067;&#23572;&#22240;&#23376;</text><rect fill="#F08080" height="38.6211" rx="12.5" ry="12.5" style="stroke:#181818;stroke-width:1.5;" width="94" x="1270" y="907.4219"/><text fill="#000000" font-family="sans-serif" font-size="14" lengthAdjust="spacing" textLength="70" x="1280" y="932.5293">&#20851;&#31995;&#34920;&#36798;&#24335;</text><rect fill="#F08080" height="38.6211" rx="12.5" ry="12.5" style="stroke:#181818;stroke-width:1.5;" width="94" x="1414" y="907.4219"/><text fill="#000000" font-family="sans-serif" font-size="14" lengthAdjust="spacing" textLength="70" x="1424" y="932.5293">&#31639;&#25968;&#34920;&#36798;&#24335;</text><rect fill="#F1F1F1" height="38.6211" rx="12.5" ry="12.5" style="stroke:#181818;stroke-width:1.5;" width="38" x="1558" y="907.4219"/><text fill="#000000" font-family="sans-serif" font-size="14" lengthAdjust="spacing" textLength="14" x="1568" y="932.5293">&#39033;</text><rect fill="#F1F1F1" height="38.6211" rx="12.5" ry="12.5" style="stroke:#181818;stroke-width:1.5;" width="52" x="1646" y="907.4219"/><text fill="#000000" font-family="sans-serif" font-size="14" lengthAdjust="spacing" textLength="28" x="1656" y="932.5293">&#22240;&#23376;</text><rect fill="#20B2AA" height="38.6211" rx="12.5" ry="12.5" style="stroke:#181818;stroke-width:1.5;" width="66" x="1748" y="907.4219"/><text fill="#000000" font-family="sans-serif" font-size="14" lengthAdjust="spacing" textLength="42" x="1758" y="932.5293">&#21021;&#31561;&#37327;</text><rect fill="#F1F1F1" height="38.6211" rx="12.5" ry="12.5" style="stroke:#181818;stroke-width:1.5;" width="80" x="1864" y="907.4219"/><text fill="#000000" font-family="sans-serif" font-size="14" lengthAdjust="spacing" textLength="56" x="1874" y="932.5293">&#20989;&#25968;&#35843;&#29992;</text><rect fill="#F1F1F1" height="38.6211" rx="12.5" ry="12.5" style="stroke:#181818;stroke-width:1.5;" width="66" x="1994" y="857.4902"/><text fill="#000000" font-family="sans-serif" font-size="14" lengthAdjust="spacing" textLength="42" x="2004" y="882.5977">&#26631;&#35782;&#31526;</text><text fill="#000000" font-family="sans-serif" font-size="14" lengthAdjust="spacing" textLength="4" x="2113" y="882.5977">f</text><path d="M2060,876.8008 L2070,876.8008 C2085,876.8008 2085,876.8008 2100,876.8008 L2110,876.8008 " fill="none" style="stroke:#181818;stroke-width:1.0;"/><path d="M1944,926.7324 L1954,926.7324 C1969,926.7324 1969,876.8008 1984,876.8008 L1994,876.8008 " fill="none" style="stroke:#181818;stroke-width:1.0;"/><text fill="#000000" font-family="sans-serif" font-size="14" lengthAdjust="spacing" textLength="5" x="1997" y="922.2188">(</text><path d="M1944,926.7324 L1954,926.7324 C1969,926.7324 1969,916.4219 1984,916.4219 L1994,916.4219 " fill="none" style="stroke:#181818;stroke-width:1.0;"/><rect fill="#F1F1F1" height="38.6211" rx="12.5" ry="12.5" style="stroke:#181818;stroke-width:1.5;" width="80" x="1994" y="936.7324"/><text fill="#000000" font-family="sans-serif" font-size="14" lengthAdjust="spacing" textLength="56" x="2004" y="961.8398">&#23454;&#21442;&#21015;&#34920;</text><text fill="#000000" font-family="sans-serif" font-size="14" lengthAdjust="spacing" textLength="7" x="2127" y="961.8398">&#949;</text><path d="M2074,956.043 L2084,956.043 C2099,956.043 2099,956.043 2114,956.043 L2124,956.043 " fill="none" style="stroke:#181818;stroke-width:1.0;"/><path d="M1944,926.7324 L1954,926.7324 C1969,926.7324 1969,956.043 1984,956.043 L1994,956.043 " fill="none" style="stroke:#181818;stroke-width:1.0;"/><text fill="#000000" font-family="sans-serif" font-size="14" lengthAdjust="spacing" textLength="5" x="1997" y="1001.4609">)</text><path d="M1944,926.7324 L1954,926.7324 C1969,926.7324 1969,995.6641 1984,995.6641 L1994,995.6641 " fill="none" style="stroke:#181818;stroke-width:1.0;"/><path d="M1814,926.7324 L1824,926.7324 C1839,926.7324 1839,926.7324 1854,926.7324 L1864,926.7324 " fill="none" style="stroke:#181818;stroke-width:1.0;"/><path d="M1698,926.7324 L1708,926.7324 C1723,926.7324 1723,926.7324 1738,926.7324 L1748,926.7324 " fill="none" style="stroke:#181818;stroke-width:1.0;"/><path d="M1596,926.7324 L1606,926.7324 C1621,926.7324 1621,926.7324 1636,926.7324 L1646,926.7324 " fill="none" style="stroke:#181818;stroke-width:1.0;"/><path d="M1508,926.7324 L1518,926.7324 C1533,926.7324 1533,926.7324 1548,926.7324 L1558,926.7324 " fill="none" style="stroke:#181818;stroke-width:1.0;"/><path d="M1364,926.7324 L1374,926.7324 C1389,926.7324 1389,926.7324 1404,926.7324 L1414,926.7324 " fill="none" style="stroke:#181818;stroke-width:1.0;"/><path d="M1220,926.7324 L1230,926.7324 C1245,926.7324 1245,926.7324 1260,926.7324 L1270,926.7324 " fill="none" style="stroke:#181818;stroke-width:1.0;"/><path d="M1090,926.7324 L1100,926.7324 C1115,926.7324 1115,926.7324 1130,926.7324 L1140,926.7324 " fill="none" style="stroke:#181818;stroke-width:1.0;"/><path d="M974,926.7324 L984,926.7324 C999,926.7324 999,926.7324 1014,926.7324 L1024,926.7324 " fill="none" style="stroke:#181818;stroke-width:1.0;"/><path d="M830,926.7324 L840,926.7324 C855,926.7324 855,926.7324 870,926.7324 L880,926.7324 " fill="none" style="stroke:#181818;stroke-width:1.0;"/><path d="M714,926.7324 L724,926.7324 C739,926.7324 739,926.7324 754,926.7324 L764,926.7324 " fill="none" style="stroke:#181818;stroke-width:1.0;"/><text fill="#000000" font-family="sans-serif" font-size="14" lengthAdjust="spacing" textLength="4" x="767" y="972.1504">;</text><path d="M714,926.7324 L724,926.7324 C739,926.7324 739,966.3535 754,966.3535 L764,966.3535 " fill="none" style="stroke:#181818;stroke-width:1.0;"/><path d="M570,926.7324 L580,926.7324 C595,926.7324 595,926.7324 610,926.7324 L620,926.7324 " fill="none" style="stroke:#181818;stroke-width:1.0;"/><path d="M468,715.5928 L478,715.5928 C493,715.5928 493,926.7324 508,926.7324 L518,926.7324 " fill="none" style="stroke:#181818;stroke-width:1.0;"/><path d="M352,646.6611 L362,646.6611 C377,646.6611 377,715.5928 392,715.5928 L402,715.5928 " fill="none" style="stroke:#181818;stroke-width:1.0;"/><text fill="#000000" font-family="sans-serif" font-size="14" lengthAdjust="spacing" textLength="5" x="405" y="761.0107">}</text><path d="M352,646.6611 L362,646.6611 C377,646.6611 377,755.2139 392,755.2139 L402,755.2139 " fill="none" style="stroke:#181818;stroke-width:1.0;"/><path d="M222,646.6611 L232,646.6611 C247,646.6611 247,646.6611 262,646.6611 L272,646.6611 " fill="none" style="stroke:#181818;stroke-width:1.0;"/><path d="M62,725.0928 L72,725.0928 C87,725.0928 87,646.6611 102,646.6611 L112,646.6611 " fill="none" style="stroke:#181818;stroke-width:1.0;"/><rect fill="#87CEFA" height="38.6211" rx="12.5" ry="12.5" style="stroke:#181818;stroke-width:1.5;" width="94" x="112" y="1164.1484"/><text fill="#000000" font-family="sans-serif" font-size="14" lengthAdjust="spacing" textLength="70" x="122" y="1189.2559">&#24635;&#20989;&#25968;&#23450;&#20041;</text><rect fill="#87CEFA" height="38.6211" rx="12.5" ry="12.5" style="stroke:#181818;stroke-width:1.5;" width="80" x="256" y="1164.1484"/><text fill="#000000" font-family="sans-serif" font-size="14" lengthAdjust="spacing" textLength="56" x="266" y="1189.2559">&#20989;&#25968;&#23450;&#20041;</text><rect fill="#F1F1F1" height="38.6211" rx="12.5" ry="12.5" style="stroke:#181818;stroke-width:1.5;" width="80" x="386" y="1015.9746"/><text fill="#000000" font-family="sans-serif" font-size="14" lengthAdjust="spacing" textLength="56" x="396" y="1041.082">&#20989;&#25968;&#31867;&#22411;</text><text fill="#000000" font-family="sans-serif" font-size="14" lengthAdjust="spacing" textLength="26" x="519" y="1041.082">void</text><path d="M466,1035.2852 L476,1035.2852 C491,1035.2852 491,1035.2852 506,1035.2852 L516,1035.2852 " fill="none" style="stroke:#181818;stroke-width:1.0;"/><path d="M336,1183.459 L346,1183.459 C361,1183.459 361,1035.2852 376,1035.2852 L386,1035.2852 " fill="none" style="stroke:#181818;stroke-width:1.0;"/><rect fill="#F1F1F1" height="38.6211" rx="12.5" ry="12.5" style="stroke:#181818;stroke-width:1.5;" width="66" x="386" y="1074.5957"/><text fill="#000000" font-family="sans-serif" font-size="14" lengthAdjust="spacing" textLength="42" x="396" y="1099.7031">&#26631;&#35782;&#31526;</text><text fill="#000000" font-family="sans-serif" font-size="14" lengthAdjust="spacing" textLength="4" x="505" y="1099.7031">f</text><path d="M452,1093.9063 L462,1093.9063 C477,1093.9063 477,1093.9063 492,1093.9063 L502,1093.9063 " fill="none" style="stroke:#181818;stroke-width:1.0;"/><path d="M336,1183.459 L346,1183.459 C361,1183.459 361,1093.9063 376,1093.9063 L386,1093.9063 " fill="none" style="stroke:#181818;stroke-width:1.0;"/><text fill="#000000" font-family="sans-serif" font-size="14" lengthAdjust="spacing" textLength="5" x="389" y="1139.3242">(</text><path d="M336,1183.459 L346,1183.459 C361,1183.459 361,1133.5273 376,1133.5273 L386,1133.5273 " fill="none" style="stroke:#181818;stroke-width:1.0;"/><rect fill="#87CEFA" height="38.6211" rx="12.5" ry="12.5" style="stroke:#181818;stroke-width:1.5;" width="136" x="386" y="1153.8379"/><text fill="#000000" font-family="sans-serif" font-size="14" lengthAdjust="spacing" textLength="112" x="396" y="1178.9453">&#20989;&#25968;&#23450;&#20041;&#24418;&#21442;&#21015;&#34920;</text><text fill="#000000" font-family="sans-serif" font-size="14" lengthAdjust="spacing" textLength="7" x="575" y="1178.9453">&#949;</text><path d="M522,1173.1484 L532,1173.1484 C547,1173.1484 547,1173.1484 562,1173.1484 L572,1173.1484 " fill="none" style="stroke:#181818;stroke-width:1.0;"/><path d="M336,1183.459 L346,1183.459 C361,1183.459 361,1173.1484 376,1173.1484 L386,1173.1484 " fill="none" style="stroke:#181818;stroke-width:1.0;"/><text fill="#000000" font-family="sans-serif" font-size="14" lengthAdjust="spacing" textLength="5" x="389" y="1218.5664">)</text><path d="M336,1183.459 L346,1183.459 C361,1183.459 361,1212.7695 376,1212.7695 L386,1212.7695 " fill="none" style="stroke:#181818;stroke-width:1.0;"/><rect fill="#FFA07A" height="38.6211" rx="12.5" ry="12.5" style="stroke:#181818;stroke-width:1.5;" width="80" x="386" y="1262.3906"/><text fill="#000000" font-family="sans-serif" font-size="14" lengthAdjust="spacing" textLength="56" x="396" y="1287.498">&#22797;&#21512;&#35821;&#21477;</text><text fill="#000000" font-family="sans-serif" font-size="14" lengthAdjust="spacing" textLength="5" x="519" y="1218.5664">{</text><path d="M466,1281.7012 L476,1281.7012 C491,1281.7012 491,1212.7695 506,1212.7695 L516,1212.7695 " fill="none" style="stroke:#181818;stroke-width:1.0;"/><rect fill="#B0C4DE" height="38.6211" rx="12.5" ry="12.5" style="stroke:#181818;stroke-width:1.5;" width="80" x="516" y="1233.0801"/><text fill="#000000" font-family="sans-serif" font-size="14" lengthAdjust="spacing" textLength="56" x="526" y="1258.1875">&#23616;&#37096;&#22768;&#26126;</text><text fill="#000000" font-family="sans-serif" font-size="14" lengthAdjust="spacing" textLength="7" x="649" y="1258.1875">&#949;</text><path d="M596,1252.3906 L606,1252.3906 C621,1252.3906 621,1252.3906 636,1252.3906 L646,1252.3906 " fill="none" style="stroke:#181818;stroke-width:1.0;"/><path d="M466,1281.7012 L476,1281.7012 C491,1281.7012 491,1252.3906 506,1252.3906 L516,1252.3906 " fill="none" style="stroke:#181818;stroke-width:1.0;"/><rect fill="#FFDEAD" height="38.6211" rx="12.5" ry="12.5" style="stroke:#181818;stroke-width:1.5;" width="66" x="516" y="1291.7012"/><text fill="#000000" font-family="sans-serif" font-size="14" lengthAdjust="spacing" textLength="42" x="526" y="1316.8086">&#35821;&#21477;&#34920;</text><text fill="#000000" font-family="sans-serif" font-size="14" lengthAdjust="spacing" textLength="7" x="635" y="1316.8086">&#949;</text><path d="M582,1311.0117 L592,1311.0117 C607,1311.0117 607,1311.0117 622,1311.0117 L632,1311.0117 " fill="none" style="stroke:#181818;stroke-width:1.0;"/><path d="M466,1281.7012 L476,1281.7012 C491,1281.7012 491,1311.0117 506,1311.0117 L516,1311.0117 " fill="none" style="stroke:#181818;stroke-width:1.0;"/><text fill="#000000" font-family="sans-serif" font-size="14" lengthAdjust="spacing" textLength="5" x="519" y="1356.4297">}</text><path d="M466,1281.7012 L476,1281.7012 C491,1281.7012 491,1350.6328 506,1350.6328 L516,1350.6328 " fill="none" style="stroke:#181818;stroke-width:1.0;"/><path d="M336,1183.459 L346,1183.459 C361,1183.459 361,1281.7012 376,1281.7012 L386,1281.7012 " fill="none" style="stroke:#181818;stroke-width:1.0;"/><path d="M206,1183.459 L216,1183.459 C231,1183.459 231,1183.459 246,1183.459 L256,1183.459 " fill="none" style="stroke:#181818;stroke-width:1.0;"/><path d="M62,725.0928 L72,725.0928 C87,725.0928 87,1183.459 102,1183.459 L112,1183.459 " fill="none" style="stroke:#181818;stroke-width:1.0;"/><rect fill="#F1F1F1" height="38.6211" rx="12.5" ry="12.5" style="stroke:#181818;stroke-width:1.5;" width="80" x="112" y="1351.9434"/><text fill="#000000" font-family="sans-serif" font-size="14" lengthAdjust="spacing" textLength="56" x="122" y="1377.0508">&#25991;&#20214;&#32467;&#26463;</text><text fill="#000000" font-family="sans-serif" font-size="14" lengthAdjust="spacing" textLength="29" x="245" y="1377.0508">EOF</text><path d="M192,1371.2539 L202,1371.2539 C217,1371.2539 217,1371.2539 232,1371.2539 L242,1371.2539 " fill="none" style="stroke:#181818;stroke-width:1.0;"/><path d="M62,725.0928 L72,725.0928 C87,725.0928 87,1371.2539 102,1371.2539 L112,1371.2539 " fill="none" style="stroke:#181818;stroke-width:1.0;"/><!--SRC=[xLTRJnfH47xVNp6nBqYZHIJSIerSbZOgrTJBgrbbfPl2GfQ5n1eJKcFH6WfDHKqRhVOM7gfYJ1ijQlz1VuKB-2zwbhCBkx3S4XDVcdqvE_FDTsRcp9pC6Oxo5CU76DOVeY84p_11sWwJL2WIfCl7XyNJR77_7U68yej1UeYGO1w62d1K29O8WFxoGQvyTILSf679HSs_273X6EjtXuDX3kvv3LRqBOimuMjAoAmXIY7zJGlfTHeiJenCNXQpUU7oiv1-9Qnj8tuDlCr0aZQ9-UZ3zVcw1iPgSPDUpDbYNm_fz62UB_dYpbjDZCli7i2OrPnmacYAj5YiLfiD8qyIDokvfaYNmMtoa1YvjbiwNBz9QYNGQ70PdJW47yMmJKCbIQkHH7JBXEE1T5PwAEKsXDzf8FHwA2OAAjUHJ0zIeciIMLGwAGXx6rYaduLucF5B-k9-idpyklJZUrMvW5Upe5DHO5RL8SeMVt_A9htouc75oKg4s1h7wN3KWXuQ8YhG4980eTXHfW5LXJaSobziZA1BifFAqq5OnQ-4HPZq3ZeKPNh416JpnTIHAa4YByFoLGYsgqLSexf8LqMDgSH4bFmd9GK1SGWYdyEX2aTMDSYHGcxAPWW5H5JAwvg-hOFYJy-Z7aL4xHXHHHubX5IsBGubx6n5o6_U79oBXzDm7wYmCbZuk2ySPZh08uFLqz9feRqRsELjnDOHLW-YmtKoj1jsh5ukLiMMa4wL_sJG7keqrpBSfsNNX11fgbS9IeEyRd1JIjgPYDDGeLtDYjAMol1EYctkVx7TMh5rMXhoPPL9QHM7wWAG3Txi2-Z2Qrh7it2_mQQRIBL3RTa7RJjBkxLQS7RJN2sxwqxQgyDUwAOLkks4BXgXc-hGgercfzZn4Kf3J3c_KjhCQPM9rdMbEE05pRjSfrbmHtlr8rATcJmlrObx6uje5fQhqvvwZbBEKD12TviJO8LMDG7MxQKr2tOmnTN6k8xcE6K6MynIIbWrZrl9wyAlKk5zSVUJD6kIuruWXcdq399UJCH4a6BvQTyOn6akoeHP6EWt6eocVfDkakB16U70O0QZqJuuQ3SQuCde58ZgNaBtU68Cek4ODq-3dudo73CNuv5zBp52nIbu5cDv9eJUOkCHcXtnZCe28DaumuNP4CtonCYChmOmc_fS30-JD8SyWHaVuQ4Ng5YGHnRpOJ_31kmmFUNjin9Z51k8KG74_V8vuKQl29vRj8FxwJy0]--></g></svg>